<svg id="visual" viewBox="0 0 900 600" width="900" height="600" xmlns="http://www.w3.org/2000/svg" xmlns:xlink="http://www.w3.org/1999/xlink" version="1.1"><rect x="0" y="0" width="900" height="600" fill="#7ca7e0"></rect><path d="M0 193L21.5 204.5C43 216 86 239 128.8 252.5C171.7 266 214.3 270 257.2 280.3C300 290.7 343 307.3 385.8 297.7C428.7 288 471.3 252 514.2 243C557 234 600 252 642.8 257.8C685.7 263.7 728.3 257.3 771.2 262C814 266.7 857 282.3 878.5 290.2L900 298L900 601L878.5 601C857 601 814 601 771.2 601C728.3 601 685.7 601 642.8 601C600 601 557 601 514.2 601C471.3 601 428.7 601 385.8 601C343 601 300 601 257.2 601C214.3 601 171.7 601 128.8 601C86 601 43 601 21.5 601L0 601Z" fill="#708bef"></path><path d="M0 239L21.5 255.2C43 271.3 86 303.7 128.8 327C171.7 350.3 214.3 364.7 257.2 370.5C300 376.3 343 373.7 385.8 367.8C428.7 362 471.3 353 514.2 353C557 353 600 362 642.8 362.7C685.7 363.3 728.3 355.7 771.2 342.5C814 329.3 857 310.7 878.5 301.3L900 292L900 601L878.5 601C857 601 814 601 771.2 601C728.3 601 685.7 601 642.8 601C600 601 557 601 514.2 601C471.3 601 428.7 601 385.8 601C343 601 300 601 257.2 601C214.3 601 171.7 601 128.8 601C86 601 43 601 21.5 601L0 601Z" fill="#637be5"></path><path d="M0 347L21.5 357.2C43 367.3 86 387.7 128.8 394.8C171.7 402 214.3 396 257.2 393.7C300 391.3 343 392.7 385.8 381.5C428.7 370.3 471.3 346.7 514.2 349.7C557 352.7 600 382.3 642.8 385.3C685.7 388.3 728.3 364.7 771.2 347.5C814 330.3 857 319.7 878.5 314.3L900 309L900 601L878.5 601C857 601 814 601 771.2 601C728.3 601 685.7 601 642.8 601C600 601 557 601 514.2 601C471.3 601 428.7 601 385.8 601C343 601 300 601 257.2 601C214.3 601 171.7 601 128.8 601C86 601 43 601 21.5 601L0 601Z" fill="#566bda"></path><path d="M0 464L21.5 462.8C43 461.7 86 459.3 128.8 462.2C171.7 465 214.3 473 257.2 470.5C300 468 343 455 385.8 439.3C428.7 423.7 471.3 405.3 514.2 397C557 388.7 600 390.3 642.8 400.2C685.7 410 728.3 428 771.2 429.7C814 431.3 857 416.7 878.5 409.3L900 402L900 601L878.5 601C857 601 814 601 771.2 601C728.3 601 685.7 601 642.8 601C600 601 557 601 514.2 601C471.3 601 428.7 601 385.8 601C343 601 300 601 257.2 601C214.3 601 171.7 601 128.8 601C86 601 43 601 21.5 601L0 601Z" fill="#4a5bcf"></path><path d="M0 525L21.5 516.3C43 507.7 86 490.3 128.8 492.7C171.7 495 214.3 517 257.2 527.2C300 537.3 343 535.7 385.8 532.8C428.7 530 471.3 526 514.2 519.7C557 513.3 600 504.7 642.8 498.2C685.7 491.7 728.3 487.3 771.2 488.7C814 490 857 497 878.5 500.5L900 504L900 601L878.5 601C857 601 814 601 771.2 601C728.3 601 685.7 601 642.8 601C600 601 557 601 514.2 601C471.3 601 428.7 601 385.8 601C343 601 300 601 257.2 601C214.3 601 171.7 601 128.8 601C86 601 43 601 21.5 601L0 601Z" fill="#3f4bc4"></path></svg>