<svg id="visual" viewBox="0 0 900 600" width="900" height="600" xmlns="http://www.w3.org/2000/svg" xmlns:xlink="http://www.w3.org/1999/xlink" version="1.1"><rect x="0" y="0" width="900" height="600" fill="#1feb77"></rect><path d="M0 234L30 248.3C60 262.7 120 291.3 180 287.8C240 284.3 300 248.7 360 244C420 239.3 480 265.7 540 269.5C600 273.3 660 254.7 720 248C780 241.3 840 246.7 870 249.3L900 252L900 601L870 601C840 601 780 601 720 601C660 601 600 601 540 601C480 601 420 601 360 601C300 601 240 601 180 601C120 601 60 601 30 601L0 601Z" fill="#21d770"></path><path d="M0 362L30 354.2C60 346.3 120 330.7 180 305C240 279.3 300 243.7 360 248C420 252.3 480 296.7 540 316.5C600 336.3 660 331.7 720 316.7C780 301.7 840 276.3 870 263.7L900 251L900 601L870 601C840 601 780 601 720 601C660 601 600 601 540 601C480 601 420 601 360 601C300 601 240 601 180 601C120 601 60 601 30 601L0 601Z" fill="#3ad886"></path><path d="M0 341L30 343.3C60 345.7 120 350.3 180 340.8C240 331.3 300 307.7 360 297.2C420 286.7 480 289.3 540 302C600 314.7 660 337.3 720 337.3C780 337.3 840 314.7 870 303.3L900 292L900 601L870 601C840 601 780 601 720 601C660 601 600 601 540 601C480 601 420 601 360 601C300 601 240 601 180 601C120 601 60 601 30 601L0 601Z" fill="#51d899"></path><path d="M0 427L30 413.2C60 399.3 120 371.7 180 364.3C240 357 300 370 360 377C420 384 480 385 540 393.5C600 402 660 418 720 413.7C780 409.3 840 384.7 870 372.3L900 360L900 601L870 601C840 601 780 601 720 601C660 601 600 601 540 601C480 601 420 601 360 601C300 601 240 601 180 601C120 601 60 601 30 601L0 601Z" fill="#67d7a9"></path><path d="M0 378L30 393.3C60 408.7 120 439.3 180 438.3C240 437.3 300 404.7 360 397C420 389.3 480 406.7 540 418.3C600 430 660 436 720 432.3C780 428.7 840 415.3 870 408.7L900 402L900 601L870 601C840 601 780 601 720 601C660 601 600 601 540 601C480 601 420 601 360 601C300 601 240 601 180 601C120 601 60 601 30 601L0 601Z" fill="#7fd6b6"></path><path d="M0 418L30 433C60 448 120 478 180 484.5C240 491 300 474 360 457.7C420 441.3 480 425.7 540 433.7C600 441.7 660 473.3 720 474.8C780 476.3 840 447.7 870 433.3L900 419L900 601L870 601C840 601 780 601 720 601C660 601 600 601 540 601C480 601 420 601 360 601C300 601 240 601 180 601C120 601 60 601 30 601L0 601Z" fill="#96d5c1"></path><path d="M0 536L30 528C60 520 120 504 180 505.2C240 506.3 300 524.7 360 534C420 543.3 480 543.7 540 531.5C600 519.3 660 494.7 720 494.3C780 494 840 518 870 530L900 542L900 601L870 601C840 601 780 601 720 601C660 601 600 601 540 601C480 601 420 601 360 601C300 601 240 601 180 601C120 601 60 601 30 601L0 601Z" fill="#aed2c9"></path><path d="M0 562L30 559C60 556 120 550 180 548.7C240 547.3 300 550.7 360 553.3C420 556 480 558 540 550.5C600 543 660 526 720 518.5C780 511 840 513 870 514L900 515L900 601L870 601C840 601 780 601 720 601C660 601 600 601 540 601C480 601 420 601 360 601C300 601 240 601 180 601C120 601 60 601 30 601L0 601Z" fill="#c6cfcd"></path></svg>