<svg id="visual" viewBox="0 0 900 600" width="900" height="600" xmlns="http://www.w3.org/2000/svg" xmlns:xlink="http://www.w3.org/1999/xlink" version="1.1"><rect x="0" y="0" width="900" height="600" fill="#af88eb"></rect><path d="M0 139L21.5 155.7C43 172.3 86 205.7 128.8 219.3C171.7 233 214.3 227 257.2 214.8C300 202.7 343 184.3 385.8 185.3C428.7 186.3 471.3 206.7 514.2 215.8C557 225 600 223 642.8 219.2C685.7 215.3 728.3 209.7 771.2 212.3C814 215 857 226 878.5 231.5L900 237L900 601L878.5 601C857 601 814 601 771.2 601C728.3 601 685.7 601 642.8 601C600 601 557 601 514.2 601C471.3 601 428.7 601 385.8 601C343 601 300 601 257.2 601C214.3 601 171.7 601 128.8 601C86 601 43 601 21.5 601L0 601Z" fill="#ac76df"></path><path d="M0 276L21.5 288.2C43 300.3 86 324.7 128.8 336C171.7 347.3 214.3 345.7 257.2 328.3C300 311 343 278 385.8 276.3C428.7 274.7 471.3 304.3 514.2 309C557 313.7 600 293.3 642.8 284.8C685.7 276.3 728.3 279.7 771.2 288.8C814 298 857 313 878.5 320.5L900 328L900 601L878.5 601C857 601 814 601 771.2 601C728.3 601 685.7 601 642.8 601C600 601 557 601 514.2 601C471.3 601 428.7 601 385.8 601C343 601 300 601 257.2 601C214.3 601 171.7 601 128.8 601C86 601 43 601 21.5 601L0 601Z" fill="#a866de"></path><path d="M0 390L21.5 396.8C43 403.7 86 417.3 128.8 408.7C171.7 400 214.3 369 257.2 363C300 357 343 376 385.8 393.8C428.7 411.7 471.3 428.3 514.2 422.5C557 416.7 600 388.3 642.8 382.8C685.7 377.3 728.3 394.7 771.2 395.2C814 395.7 857 379.3 878.5 371.2L900 363L900 601L878.5 601C857 601 814 601 771.2 601C728.3 601 685.7 601 642.8 601C600 601 557 601 514.2 601C471.3 601 428.7 601 385.8 601C343 601 300 601 257.2 601C214.3 601 171.7 601 128.8 601C86 601 43 601 21.5 601L0 601Z" fill="#a456dd"></path><path d="M0 500L21.5 499.2C43 498.3 86 496.7 128.8 488.7C171.7 480.7 214.3 466.3 257.2 474.5C300 482.7 343 513.3 385.8 527.5C428.7 541.7 471.3 539.3 514.2 537.2C557 535 600 533 642.8 524.7C685.7 516.3 728.3 501.7 771.2 492.8C814 484 857 481 878.5 479.5L900 478L900 601L878.5 601C857 601 814 601 771.2 601C728.3 601 685.7 601 642.8 601C600 601 557 601 514.2 601C471.3 601 428.7 601 385.8 601C343 601 300 601 257.2 601C214.3 601 171.7 601 128.8 601C86 601 43 601 21.5 601L0 601Z" fill="#a043dc"></path></svg>